<svg width="203" height="32" viewBox="0 0 203 32" fill="none" xmlns="http://www.w3.org/2000/svg">
<g clip-path="url(#clip0_407_1245)">
<path d="M21.845 17.6584H11.7275V20.9313H21.845V17.6584Z" fill="#1A3A66"/>
<path d="M21.1516 10.814H11.7275V13.7909H21.1516V10.814Z" fill="#1A3A66"/>
<path d="M62.3674 10.814H52.9434V13.7909H62.3674V10.814Z" fill="#1A3A66"/>
<path d="M63.0609 17.6584H52.9434V20.9313H63.0609V17.6584Z" fill="#1A3A66"/>
<path d="M73.1176 1.62476H0.870448C0.639591 1.62476 0.418189 1.71646 0.254948 1.8797C0.0917076 2.04294 0 2.26435 0 2.4952L0 29.9462C0 30.1771 0.0917076 30.3985 0.254948 30.5617C0.418189 30.725 0.639591 30.8167 0.870448 30.8167H73.1176C73.3484 30.8167 73.5699 30.725 73.7331 30.5617C73.8963 30.3985 73.988 30.1771 73.988 29.9462V2.4952C73.988 2.26435 73.8963 2.04294 73.7331 1.8797C73.5699 1.71646 73.3484 1.62476 73.1176 1.62476ZM25.7391 21.1286C25.7475 21.775 25.5757 22.4109 25.243 22.9652C24.9151 23.516 24.4554 23.9766 23.9054 24.3057C23.3448 24.6385 22.7032 24.8102 22.0513 24.8019H7.88335V6.94319H21.3753C22.0206 6.93136 22.6565 7.09912 23.2119 7.42774C23.7611 7.75396 24.2214 8.21035 24.5524 8.75662C24.8898 9.31834 25.0609 9.96429 25.0457 10.6194V13.9619C25.0468 14.1656 25.0342 14.3692 25.008 14.5712C24.9863 14.7535 24.9404 14.932 24.8716 15.1022C25.1304 15.4348 25.3396 15.8033 25.4925 16.196C25.6535 16.5893 25.7373 17.01 25.7391 17.435V21.1286ZM46.0002 14.4842C46.0068 15.1221 45.8349 15.7492 45.5041 16.2947C45.1799 16.8336 44.7286 17.2849 44.1897 17.6091C43.6442 17.9399 43.0171 18.1118 42.3792 18.1052H32.2617V21.0067H46.0002V24.8019H28.4665V17.8731C28.46 17.2352 28.6318 16.6081 28.9627 16.0626C29.2849 15.5252 29.7368 15.0772 30.2771 14.7598C30.8249 14.4358 31.4511 14.2683 32.0876 14.2753H42.208V10.7383H32.2617V12.1891H28.4665V10.541C28.46 9.90309 28.6318 9.27601 28.9627 8.73051C29.2849 8.19308 29.7368 7.74513 30.2771 7.42774C30.8249 7.10377 31.4511 6.93618 32.0876 6.94319H42.3792C43.0156 6.93618 43.6418 7.10377 44.1897 7.42774C44.73 7.74513 45.1819 8.19308 45.5041 8.73051C45.8349 9.27601 46.0068 9.90309 46.0002 10.541V14.4842ZM66.9577 21.1286C66.9608 21.7767 66.7829 22.4127 66.4442 22.9652C66.1179 23.5173 65.6579 23.9783 65.1066 24.3057C64.5462 24.639 63.9045 24.8107 63.2525 24.8019H49.0932V6.94319H62.5823C63.2255 6.9332 63.859 7.10086 64.4131 7.42774C64.9607 7.7549 65.42 8.21114 65.7507 8.75662C66.0942 9.31651 66.2713 9.96259 66.2614 10.6194V13.9619C66.262 14.1655 66.2504 14.369 66.2265 14.5712C66.2022 14.753 66.1564 14.9312 66.0902 15.1022C66.3471 15.4356 66.5552 15.8039 66.7082 16.196C66.8701 16.5892 66.9548 17.0098 66.9577 17.435V21.1286Z" fill="#1A3A66"/>
<path d="M82.5264 25V7.14468H86.4943L92.5453 14.3612L98.5714 7.14468H102.564V25H98.6954V13.0221L92.5453 20.3626L86.3703 13.0469V25H82.5264ZM105.583 25V10.8149C105.583 10.1371 105.748 9.52539 106.079 8.97981C106.41 8.4177 106.856 7.97131 107.418 7.64066C107.98 7.31001 108.592 7.14468 109.253 7.14468H119.743C120.421 7.14468 121.033 7.31001 121.578 7.64066C122.14 7.97131 122.587 8.4177 122.918 8.97981C123.265 9.52539 123.438 10.1371 123.438 10.8149V25H119.545V19.2466H109.427V25H105.583ZM109.427 15.378H119.545V11.0133H109.427V15.378ZM140.127 25L134.944 18.825H139.978L144.094 23.6857V25H140.127ZM126.264 25V7.16948H140.424C141.102 7.16948 141.714 7.33481 142.259 7.66546C142.821 7.99611 143.268 8.4425 143.598 9.00461C143.946 9.56672 144.119 10.1784 144.119 10.8397V15.4524C144.119 16.1137 143.946 16.7254 143.598 17.2875C143.268 17.8496 142.821 18.296 142.259 18.6266C141.714 18.9573 141.102 19.1226 140.424 19.1226L130.108 19.1474V25H126.264ZM130.108 15.254H140.226V11.0133H130.108V15.254ZM146.753 25V7.14468H150.621V14.138H154.118L159.971 7.14468H163.988V8.48383L157.615 16.0723L163.988 23.6609V25H159.971L154.118 18.0067H150.621V25H146.753ZM166.539 25V7.14468H183.031V11.0133H170.433V14.138H180.576V18.0067H170.433V21.1313H183.031V25H166.539ZM191.577 25V11.0133H184.584V7.14468H202.439V11.0133H195.446V25H191.577Z" fill="#1A3A66"/>
</g>
<defs>
<clipPath id="clip0_407_1245">
<rect width="203" height="31.046" fill="white"/>
</clipPath>
</defs>
</svg>
